<svg xmlns="http://www.w3.org/2000/svg" viewBox="0 0 64 64" role="img" aria-label="United States flag">
  <defs>
    <clipPath id="usCircleClip">
      <circle cx="32" cy="32" r="31"/>
    </clipPath>
  </defs>
  <g clip-path="url(#usCircleClip)">
    <rect width="64" height="64" fill="#ffffff"/>
    <rect y="0" width="64" height="4.923" fill="#b22234"/>
    <rect y="9.846" width="64" height="4.923" fill="#b22234"/>
    <rect y="19.692" width="64" height="4.923" fill="#b22234"/>
    <rect y="29.538" width="64" height="4.923" fill="#b22234"/>
    <rect y="39.384" width="64" height="4.923" fill="#b22234"/>
    <rect y="49.23" width="64" height="4.923" fill="#b22234"/>
    <rect y="59.076" width="64" height="4.924" fill="#b22234"/>
    <rect width="35" height="34.462" fill="#3c3b6e"/>
    <g fill="#ffffff">
      <circle cx="5" cy="5" r="1.2"/>
      <circle cx="11" cy="5" r="1.2"/>
      <circle cx="17" cy="5" r="1.2"/>
      <circle cx="23" cy="5" r="1.2"/>
      <circle cx="29" cy="5" r="1.2"/>
      <circle cx="8" cy="10" r="1.2"/>
      <circle cx="14" cy="10" r="1.2"/>
      <circle cx="20" cy="10" r="1.2"/>
      <circle cx="26" cy="10" r="1.2"/>
      <circle cx="32" cy="10" r="1.2"/>
      <circle cx="5" cy="15" r="1.2"/>
      <circle cx="11" cy="15" r="1.2"/>
      <circle cx="17" cy="15" r="1.2"/>
      <circle cx="23" cy="15" r="1.2"/>
      <circle cx="29" cy="15" r="1.2"/>
      <circle cx="8" cy="20" r="1.2"/>
      <circle cx="14" cy="20" r="1.2"/>
      <circle cx="20" cy="20" r="1.2"/>
      <circle cx="26" cy="20" r="1.2"/>
      <circle cx="32" cy="20" r="1.2"/>
      <circle cx="5" cy="25" r="1.2"/>
      <circle cx="11" cy="25" r="1.2"/>
      <circle cx="17" cy="25" r="1.2"/>
      <circle cx="23" cy="25" r="1.2"/>
      <circle cx="29" cy="25" r="1.2"/>
      <circle cx="8" cy="30" r="1.2"/>
      <circle cx="14" cy="30" r="1.2"/>
      <circle cx="20" cy="30" r="1.2"/>
      <circle cx="26" cy="30" r="1.2"/>
      <circle cx="32" cy="30" r="1.2"/>
    </g>
  </g>
  <circle cx="32" cy="32" r="31" fill="none" stroke="rgba(255,255,255,0.32)" stroke-width="2"/>
</svg>
